<svg width="1405" height="797" viewBox="0 0 1405 797" fill="none" xmlns="http://www.w3.org/2000/svg">
<g clip-path="url(#clip0_227_79)">
<path fill-rule="evenodd" clip-rule="evenodd" d="M191.234 266.515C190.985 265.829 190.015 265.829 189.765 266.515L188.631 269.632L185.514 270.765C184.829 271.015 184.829 271.985 185.514 272.235L188.631 273.368L189.765 276.485C190.015 277.171 190.985 277.171 191.234 276.485L192.368 273.368L195.485 272.235C196.171 271.985 196.171 271.015 195.485 270.765L192.368 269.632L191.234 266.515Z" fill="#C4374C"/>
</g>
<g clip-path="url(#clip1_227_79)">
<path fill-rule="evenodd" clip-rule="evenodd" d="M18.6351 509.795C18.2489 508.735 16.7505 508.735 16.3643 509.795L14.6121 514.612L9.79505 516.365C8.73498 516.751 8.73498 518.249 9.79505 518.635L14.6121 520.388L16.3643 525.205C16.7505 526.265 18.2489 526.265 18.6351 525.205L20.3873 520.388L25.2043 518.635C26.2644 518.249 26.2644 516.751 25.2043 516.365L20.3873 514.612L18.6351 509.795Z" fill="#C4374C"/>
</g>
<g clip-path="url(#clip2_227_79)">
<path fill-rule="evenodd" clip-rule="evenodd" d="M457.938 754.105C456.938 751.299 453.06 751.299 452.061 754.105L447.526 766.856L435.058 771.494C432.314 772.516 432.314 776.483 435.058 777.505L447.526 782.143L452.061 794.894C453.06 797.7 456.938 797.7 457.938 794.894L462.473 782.143L474.941 777.505C477.684 776.483 477.684 772.516 474.941 771.494L462.473 766.856L457.938 754.105Z" fill="#C4374C"/>
</g>
<g clip-path="url(#clip3_227_79)">
<path fill-rule="evenodd" clip-rule="evenodd" d="M402.518 74.0289C402.018 72.657 400.079 72.657 399.579 74.0289L397.312 80.2628L391.078 82.5303C389.706 83.03 389.706 84.9692 391.078 85.4689L397.312 87.7365L399.579 93.9703C400.079 95.3422 402.018 95.3422 402.518 93.9703L404.785 87.7365L411.019 85.4689C412.391 84.9692 412.391 83.03 411.019 82.5303L404.785 80.2628L402.518 74.0289Z" fill="#C4374C"/>
</g>
<g clip-path="url(#clip4_227_79)">
<path fill-rule="evenodd" clip-rule="evenodd" d="M7.36799 0.608227C7.0727 -0.202417 5.92684 -0.202417 5.63156 0.608227L4.29163 4.29187L0.607982 5.6318C-0.202661 5.92709 -0.202661 7.07294 0.607982 7.36823L4.29163 8.70816L5.63156 12.3918C5.92684 13.2024 7.0727 13.2024 7.36799 12.3918L8.70791 8.70816L12.3916 7.36823C13.2022 7.07294 13.2022 5.92709 12.3916 5.6318L8.70791 4.29187L7.36799 0.608227Z" fill="#C4374C"/>
</g>
<g clip-path="url(#clip5_227_79)">
<path fill-rule="evenodd" clip-rule="evenodd" d="M1359.47 213.029C1358.97 211.657 1357.03 211.657 1356.53 213.029L1354.26 219.263L1348.03 221.531C1346.66 222.03 1346.66 223.969 1348.03 224.469L1354.26 226.737L1356.53 232.971C1357.03 234.342 1358.97 234.342 1359.47 232.971L1361.74 226.737L1367.97 224.469C1369.34 223.969 1369.34 222.03 1367.97 221.531L1361.74 219.263L1359.47 213.029Z" fill="#C4374C"/>
</g>
<g clip-path="url(#clip6_227_79)">
<path fill-rule="evenodd" clip-rule="evenodd" d="M944.234 60.5147C943.985 59.8288 943.015 59.8288 942.765 60.5147L941.631 63.6316L938.514 64.7654C937.829 65.0153 937.829 65.9848 938.514 66.2347L941.631 67.3685L942.765 70.4854C943.015 71.1713 943.985 71.1713 944.234 70.4854L945.368 67.3685L948.485 66.2347C949.171 65.9848 949.171 65.0153 948.485 64.7654L945.368 63.6316L944.234 60.5147Z" fill="#C4374C"/>
</g>
<g clip-path="url(#clip7_227_79)">
<path fill-rule="evenodd" clip-rule="evenodd" d="M1224.23 611.515C1223.98 610.829 1223.02 610.829 1222.77 611.515L1221.63 614.632L1218.51 615.765C1217.83 616.015 1217.83 616.985 1218.51 617.235L1221.63 618.368L1222.77 621.485C1223.02 622.171 1223.98 622.171 1224.23 621.485L1225.37 618.368L1228.49 617.235C1229.17 616.985 1229.17 616.015 1228.49 615.765L1225.37 614.632L1224.23 611.515Z" fill="#C4374C"/>
</g>
<g opacity="0.16" filter="url(#filter0_f_227_79)">
<circle cx="820.955" cy="384.955" r="160" fill="#C4374C"/>
</g>
<defs>
<filter id="filter0_f_227_79" x="486.155" y="50.1553" width="669.6" height="669.6" filterUnits="userSpaceOnUse" color-interpolation-filters="sRGB">
<feFlood flood-opacity="0" result="BackgroundImageFix"/>
<feBlend mode="normal" in="SourceGraphic" in2="BackgroundImageFix" result="shape"/>
<feGaussianBlur stdDeviation="87.4" result="effect1_foregroundBlur_227_79"/>
</filter>
<clipPath id="clip0_227_79">
<rect width="11" height="11" fill="white" transform="translate(185 266)"/>
</clipPath>
<clipPath id="clip1_227_79">
<rect width="17" height="17" fill="white" transform="translate(9 509)"/>
</clipPath>
<clipPath id="clip2_227_79">
<rect width="44" height="45" fill="white" transform="translate(433 752)"/>
</clipPath>
<clipPath id="clip3_227_79">
<rect width="22" height="22" fill="white" transform="translate(390 73)"/>
</clipPath>
<clipPath id="clip4_227_79">
<rect width="13" height="13" fill="white"/>
</clipPath>
<clipPath id="clip5_227_79">
<rect width="22" height="22" fill="white" transform="translate(1347 212)"/>
</clipPath>
<clipPath id="clip6_227_79">
<rect width="11" height="11" fill="white" transform="translate(938 60)"/>
</clipPath>
<clipPath id="clip7_227_79">
<rect width="11" height="11" fill="white" transform="translate(1218 611)"/>
</clipPath>
</defs>
</svg>
