<svg width="352" height="146" viewBox="0 0 352 146" fill="none" xmlns="http://www.w3.org/2000/svg">
<g filter="url(#filter0_f_228_118)">
<rect x="40" y="40" width="272" height="53" rx="12" fill="url(#paint0_linear_228_118)" fill-opacity="0.85"/>
<rect x="40" y="40" width="272" height="53" rx="12" fill="url(#paint1_radial_228_118)" fill-opacity="0.02"/>
</g>
<g filter="url(#filter1_d_228_118)">
<rect x="40" y="40" width="272" height="53" rx="12" fill="url(#paint2_linear_228_118)" shape-rendering="crispEdges"/>
<rect x="40" y="40" width="272" height="53" rx="12" fill="url(#paint3_radial_228_118)" fill-opacity="0.02" shape-rendering="crispEdges"/>
</g>
<path d="M122.711 73V60.31H124.997V65.71H127.157L126.689 66.016L130.433 60.31H132.989L128.813 66.448L127.931 65.8C128.747 65.92 129.425 66.202 129.965 66.646C130.517 67.078 130.997 67.69 131.405 68.482L133.655 73H131.153L129.407 69.346C129.107 68.71 128.747 68.26 128.327 67.996C127.919 67.732 127.397 67.6 126.761 67.6H124.997V73H122.711ZM139.048 73.18C138.112 73.18 137.302 72.988 136.618 72.604C135.934 72.22 135.4 71.674 135.016 70.966C134.644 70.258 134.458 69.418 134.458 68.446C134.458 67.474 134.644 66.64 135.016 65.944C135.4 65.236 135.934 64.69 136.618 64.306C137.302 63.922 138.112 63.73 139.048 63.73C139.984 63.73 140.794 63.922 141.478 64.306C142.174 64.69 142.708 65.236 143.08 65.944C143.464 66.64 143.656 67.474 143.656 68.446C143.656 69.418 143.464 70.258 143.08 70.966C142.708 71.674 142.174 72.22 141.478 72.604C140.794 72.988 139.984 73.18 139.048 73.18ZM139.048 71.452C139.756 71.452 140.32 71.206 140.74 70.714C141.16 70.21 141.37 69.454 141.37 68.446C141.37 67.438 141.16 66.688 140.74 66.196C140.32 65.704 139.756 65.458 139.048 65.458C138.34 65.458 137.776 65.704 137.356 66.196C136.936 66.688 136.726 67.438 136.726 68.446C136.726 69.454 136.936 70.21 137.356 70.714C137.776 71.206 138.34 71.452 139.048 71.452ZM145.788 73V63.91H154.302V73H152.07V65.638H148.02V73H145.788ZM156.862 73V63.91H158.896V70.786H158.356L163.522 63.91H165.376V73H163.342V66.106H163.9L158.716 73H156.862ZM168.008 76.888V66.178C168.008 65.806 167.996 65.428 167.972 65.044C167.948 64.66 167.912 64.282 167.864 63.91H170.042L170.24 65.818H170.042C170.222 65.182 170.6 64.678 171.176 64.306C171.764 63.922 172.442 63.73 173.21 63.73C174.014 63.73 174.716 63.922 175.316 64.306C175.916 64.678 176.384 65.218 176.72 65.926C177.056 66.622 177.224 67.462 177.224 68.446C177.224 69.43 177.056 70.276 176.72 70.984C176.384 71.692 175.916 72.238 175.316 72.622C174.716 72.994 174.014 73.18 173.21 73.18C172.454 73.18 171.788 72.994 171.212 72.622C170.636 72.25 170.252 71.752 170.06 71.128H170.258V76.888H168.008ZM172.58 71.452C173.3 71.452 173.876 71.206 174.308 70.714C174.74 70.21 174.956 69.454 174.956 68.446C174.956 67.438 174.74 66.688 174.308 66.196C173.876 65.704 173.3 65.458 172.58 65.458C171.872 65.458 171.302 65.704 170.87 66.196C170.438 66.688 170.222 67.438 170.222 68.446C170.222 69.454 170.438 70.21 170.87 70.714C171.302 71.206 171.872 71.452 172.58 71.452ZM183.52 73.18C182.584 73.18 181.774 72.988 181.09 72.604C180.406 72.22 179.872 71.674 179.488 70.966C179.116 70.258 178.93 69.418 178.93 68.446C178.93 67.474 179.116 66.64 179.488 65.944C179.872 65.236 180.406 64.69 181.09 64.306C181.774 63.922 182.584 63.73 183.52 63.73C184.456 63.73 185.266 63.922 185.95 64.306C186.646 64.69 187.18 65.236 187.552 65.944C187.936 66.64 188.128 67.474 188.128 68.446C188.128 69.418 187.936 70.258 187.552 70.966C187.18 71.674 186.646 72.22 185.95 72.604C185.266 72.988 184.456 73.18 183.52 73.18ZM183.52 71.452C184.228 71.452 184.792 71.206 185.212 70.714C185.632 70.21 185.842 69.454 185.842 68.446C185.842 67.438 185.632 66.688 185.212 66.196C184.792 65.704 184.228 65.458 183.52 65.458C182.812 65.458 182.248 65.704 181.828 66.196C181.408 66.688 181.198 67.438 181.198 68.446C181.198 69.454 181.408 70.21 181.828 70.714C182.248 71.206 182.812 71.452 183.52 71.452ZM190.26 73V63.91H195.102C196.242 63.91 197.076 64.12 197.604 64.54C198.132 64.948 198.396 65.53 198.396 66.286C198.396 66.862 198.204 67.342 197.82 67.726C197.436 68.11 196.926 68.35 196.29 68.446V68.194C197.07 68.242 197.67 68.47 198.09 68.878C198.51 69.286 198.72 69.814 198.72 70.462C198.72 71.242 198.42 71.86 197.82 72.316C197.22 72.772 196.368 73 195.264 73H190.26ZM192.348 71.614H195.03C195.558 71.614 195.96 71.506 196.236 71.29C196.524 71.074 196.668 70.756 196.668 70.336C196.668 69.916 196.524 69.598 196.236 69.382C195.96 69.166 195.558 69.058 195.03 69.058H192.348V71.614ZM192.348 67.672H194.832C195.312 67.672 195.684 67.57 195.948 67.366C196.212 67.15 196.344 66.85 196.344 66.466C196.344 66.082 196.212 65.788 195.948 65.584C195.684 65.38 195.312 65.278 194.832 65.278H192.348V67.672ZM204.266 73.18C203.474 73.18 202.778 72.994 202.178 72.622C201.578 72.238 201.11 71.692 200.774 70.984C200.438 70.276 200.27 69.43 200.27 68.446C200.27 67.462 200.438 66.622 200.774 65.926C201.11 65.218 201.578 64.678 202.178 64.306C202.778 63.922 203.474 63.73 204.266 63.73C205.034 63.73 205.706 63.922 206.282 64.306C206.87 64.678 207.26 65.182 207.452 65.818H207.254L207.452 63.91H209.612C209.576 64.282 209.54 64.66 209.504 65.044C209.48 65.428 209.468 65.806 209.468 66.178V73H207.236L207.218 71.128H207.434C207.242 71.752 206.852 72.25 206.264 72.622C205.676 72.994 205.01 73.18 204.266 73.18ZM204.896 71.452C205.604 71.452 206.174 71.206 206.606 70.714C207.038 70.21 207.254 69.454 207.254 68.446C207.254 67.438 207.038 66.688 206.606 66.196C206.174 65.704 205.604 65.458 204.896 65.458C204.188 65.458 203.618 65.704 203.186 66.196C202.754 66.688 202.538 67.438 202.538 68.446C202.538 69.454 202.748 70.21 203.168 70.714C203.6 71.206 204.176 71.452 204.896 71.452ZM214.054 73V65.674H210.94V63.91H219.418V65.674H216.286V73H214.054ZM220.811 73V63.91H223.043V66.952H225.437C226.649 66.952 227.561 67.21 228.173 67.726C228.785 68.23 229.091 68.962 229.091 69.922C229.091 70.546 228.947 71.092 228.659 71.56C228.371 72.016 227.951 72.37 227.399 72.622C226.859 72.874 226.205 73 225.437 73H220.811ZM223.043 71.524H225.131C225.743 71.524 226.211 71.398 226.535 71.146C226.859 70.882 227.021 70.486 227.021 69.958C227.021 69.43 226.859 69.046 226.535 68.806C226.223 68.554 225.755 68.428 225.131 68.428H223.043V71.524Z" fill="white"/>
<defs>
<filter id="filter0_f_228_118" x="0" y="0" width="352" height="133" filterUnits="userSpaceOnUse" color-interpolation-filters="sRGB">
<feFlood flood-opacity="0" result="BackgroundImageFix"/>
<feBlend mode="normal" in="SourceGraphic" in2="BackgroundImageFix" result="shape"/>
<feGaussianBlur stdDeviation="20" result="effect1_foregroundBlur_228_118"/>
</filter>
<filter id="filter1_d_228_118" x="7" y="27" width="338" height="119" filterUnits="userSpaceOnUse" color-interpolation-filters="sRGB">
<feFlood flood-opacity="0" result="BackgroundImageFix"/>
<feColorMatrix in="SourceAlpha" type="matrix" values="0 0 0 0 0 0 0 0 0 0 0 0 0 0 0 0 0 0 127 0" result="hardAlpha"/>
<feMorphology radius="7" operator="erode" in="SourceAlpha" result="effect1_dropShadow_228_118"/>
<feOffset dy="20"/>
<feGaussianBlur stdDeviation="20"/>
<feComposite in2="hardAlpha" operator="out"/>
<feColorMatrix type="matrix" values="0 0 0 0 0.0705882 0 0 0 0 0.0705882 0 0 0 0 0.0705882 0 0 0 0.4 0"/>
<feBlend mode="normal" in2="BackgroundImageFix" result="effect1_dropShadow_228_118"/>
<feBlend mode="normal" in="SourceGraphic" in2="effect1_dropShadow_228_118" result="shape"/>
</filter>
<linearGradient id="paint0_linear_228_118" x1="128.022" y1="45.3898" x2="291.326" y2="84.0306" gradientUnits="userSpaceOnUse">
<stop stop-color="#C4374C" stop-opacity="0.54"/>
<stop offset="1" stop-color="#C4374C" stop-opacity="0.4"/>
</linearGradient>
<radialGradient id="paint1_radial_228_118" cx="0" cy="0" r="1" gradientUnits="userSpaceOnUse" gradientTransform="translate(40 66.137) scale(272 741.234)">
<stop stop-color="white"/>
<stop offset="1" stop-color="white" stop-opacity="0"/>
<stop offset="1" stop-color="white"/>
</radialGradient>
<linearGradient id="paint2_linear_228_118" x1="128.022" y1="45.3898" x2="291.326" y2="84.0306" gradientUnits="userSpaceOnUse">
<stop stop-color="#C4374C"/>
<stop offset="1" stop-color="#A92E41" stop-opacity="0.4"/>
</linearGradient>
<radialGradient id="paint3_radial_228_118" cx="0" cy="0" r="1" gradientUnits="userSpaceOnUse" gradientTransform="translate(40 66.137) scale(272 741.234)">
<stop stop-color="white"/>
<stop offset="1" stop-color="white" stop-opacity="0"/>
<stop offset="1" stop-color="white"/>
</radialGradient>
</defs>
</svg>
