<svg width="306" height="306" viewBox="0 0 306 306" fill="none" xmlns="http://www.w3.org/2000/svg">
<g filter="url(#filter0_f_233_173)">
<circle cx="153" cy="153" r="128" fill="url(#paint0_linear_233_173)"/>
</g>
<circle cx="153" cy="153" r="128" fill="url(#paint1_linear_233_173)"/>
<path d="M114.677 196.178C106.863 196.178 100.063 194.401 94.2749 190.845C88.4871 187.249 84.0016 182.06 80.8184 175.28C77.6764 168.459 76.1055 160.211 76.1055 150.538C76.1055 143.262 77.2424 136.792 79.5161 131.128C81.7899 125.464 84.9318 120.689 88.9419 116.803C92.9933 112.876 97.6855 109.899 103.019 107.874C108.393 105.848 114.16 104.835 120.32 104.835C125.736 104.835 130.614 105.331 134.955 106.323C139.337 107.315 143.057 108.287 146.117 109.238L148.473 109.92L144.628 126.167C142.727 119.966 139.523 115.067 135.017 111.47C130.552 107.874 125.653 106.075 120.32 106.075C110.191 106.075 102.522 110.313 97.3135 118.788C92.5179 126.642 90.1201 137.226 90.1201 150.538C90.1201 158.971 91.009 166.537 92.7866 173.234C94.5643 179.931 97.2721 185.223 100.91 189.109C104.59 192.995 109.178 194.938 114.677 194.938C122.366 194.938 128.65 192.085 133.528 186.38C137.704 181.502 140.143 174.784 140.846 166.227V149.855H120.506V148.615H153.496V194.938H152.256C150.23 194.938 148.349 194.173 146.613 192.644C144.876 191.114 143.471 188.902 142.396 186.008C141.362 183.073 140.846 179.518 140.846 175.342V174.412C139.523 179.497 137.414 183.755 134.521 187.187C129.312 193.181 122.697 196.178 114.677 196.178ZM204.408 195H181.587C182.993 194.256 184.192 193.305 185.184 192.147C186.176 190.949 186.672 189.357 186.672 187.373V107.439H181.587C178.652 107.439 175.696 108.142 172.72 109.548C169.743 110.953 167.015 112.566 164.534 114.385C162.054 116.204 160.049 117.837 158.519 119.284L156.225 121.392L160.007 106.137H225.988L229.833 121.392C227.559 119.16 224.789 116.824 221.523 114.385C215.156 109.755 209.451 107.439 204.408 107.439H199.385V187.373C199.385 189.357 199.881 190.949 200.873 192.147C201.865 193.305 203.043 194.256 204.408 195Z" fill="white"/>
<defs>
<filter id="filter0_f_233_173" x="0" y="0" width="306" height="306" filterUnits="userSpaceOnUse" color-interpolation-filters="sRGB">
<feFlood flood-opacity="0" result="BackgroundImageFix"/>
<feBlend mode="normal" in="SourceGraphic" in2="BackgroundImageFix" result="shape"/>
<feGaussianBlur stdDeviation="12.5" result="effect1_foregroundBlur_233_173"/>
</filter>
<linearGradient id="paint0_linear_233_173" x1="142.5" y1="121" x2="194.5" y2="221" gradientUnits="userSpaceOnUse">
<stop stop-color="#A92E41"/>
<stop offset="1" stop-color="#6B1321"/>
</linearGradient>
<linearGradient id="paint1_linear_233_173" x1="142.5" y1="121" x2="194.5" y2="221" gradientUnits="userSpaceOnUse">
<stop stop-color="#A92E41"/>
<stop offset="1" stop-color="#6B1321"/>
</linearGradient>
</defs>
</svg>
