<svg width="352" height="172" viewBox="0 0 352 172" fill="none" xmlns="http://www.w3.org/2000/svg">
<g filter="url(#filter0_f_233_169)">
<path d="M300 39H52C45.3726 39 40 44.3726 40 51V100C40 106.627 45.3726 112 52 112H300C306.627 112 312 106.627 312 100V51C312 44.3726 306.627 39 300 39Z" fill="url(#paint0_linear_233_169)"/>
<path d="M300 39H52C45.3726 39 40 44.3726 40 51V100C40 106.627 45.3726 112 52 112H300C306.627 112 312 106.627 312 100V51C312 44.3726 306.627 39 300 39Z" fill="url(#paint1_radial_233_169)" fill-opacity="0.02"/>
</g>
<g filter="url(#filter1_d_233_169)">
<path d="M300 39H52C45.3726 39 40 44.3726 40 51V100C40 106.627 45.3726 112 52 112H300C306.627 112 312 106.627 312 100V51C312 44.3726 306.627 39 300 39Z" fill="url(#paint2_linear_233_169)"/>
<path d="M300 39H52C45.3726 39 40 44.3726 40 51V100C40 106.627 45.3726 112 52 112H300C306.627 112 312 106.627 312 100V51C312 44.3726 306.627 39 300 39Z" fill="url(#paint3_radial_233_169)" fill-opacity="0.02"/>
<path d="M114.405 82V69.31H123.009V71.2H116.709V82H114.405ZM126.882 82.18C125.358 82.18 124.164 81.76 123.3 80.92C122.436 80.08 122.004 78.928 122.004 77.464C122.004 76.516 122.19 75.688 122.562 74.98C122.934 74.272 123.45 73.72 124.11 73.324C124.782 72.928 125.562 72.73 126.45 72.73C127.326 72.73 128.058 72.916 128.646 73.288C129.234 73.66 129.678 74.182 129.978 74.854C130.29 75.526 130.446 76.312 130.446 77.212V77.806H123.822V76.618H128.844L128.538 76.87C128.538 76.03 128.358 75.388 127.998 74.944C127.65 74.5 127.14 74.278 126.468 74.278C125.724 74.278 125.148 74.542 124.74 75.07C124.344 75.598 124.146 76.336 124.146 77.284V77.518C124.146 78.502 124.386 79.24 124.866 79.732C125.358 80.212 126.048 80.452 126.936 80.452C127.452 80.452 127.932 80.386 128.376 80.254C128.832 80.11 129.264 79.882 129.672 79.57L130.338 81.082C129.906 81.43 129.39 81.7 128.79 81.892C128.19 82.084 127.554 82.18 126.882 82.18ZM132.525 82V72.91H134.757V76.474H138.861V72.91H141.093V82H138.861V78.202H134.757V82H132.525ZM148.116 82.18C146.592 82.18 145.398 81.76 144.534 80.92C143.67 80.08 143.238 78.928 143.238 77.464C143.238 76.516 143.424 75.688 143.796 74.98C144.168 74.272 144.684 73.72 145.344 73.324C146.016 72.928 146.796 72.73 147.684 72.73C148.56 72.73 149.292 72.916 149.88 73.288C150.468 73.66 150.912 74.182 151.212 74.854C151.524 75.526 151.68 76.312 151.68 77.212V77.806H145.056V76.618H150.078L149.772 76.87C149.772 76.03 149.592 75.388 149.232 74.944C148.884 74.5 148.374 74.278 147.702 74.278C146.958 74.278 146.382 74.542 145.974 75.07C145.578 75.598 145.38 76.336 145.38 77.284V77.518C145.38 78.502 145.62 79.24 146.1 79.732C146.592 80.212 147.282 80.452 148.17 80.452C148.686 80.452 149.166 80.386 149.61 80.254C150.066 80.11 150.498 79.882 150.906 79.57L151.572 81.082C151.14 81.43 150.624 81.7 150.024 81.892C149.424 82.084 148.788 82.18 148.116 82.18ZM153.831 85.888V75.178C153.831 74.806 153.819 74.428 153.795 74.044C153.771 73.66 153.735 73.282 153.687 72.91H155.865L156.063 74.818H155.865C156.045 74.182 156.423 73.678 156.999 73.306C157.587 72.922 158.265 72.73 159.033 72.73C159.837 72.73 160.539 72.922 161.139 73.306C161.739 73.678 162.207 74.218 162.543 74.926C162.879 75.622 163.047 76.462 163.047 77.446C163.047 78.43 162.879 79.276 162.543 79.984C162.207 80.692 161.739 81.238 161.139 81.622C160.539 81.994 159.837 82.18 159.033 82.18C158.277 82.18 157.611 81.994 157.035 81.622C156.459 81.25 156.075 80.752 155.883 80.128H156.081V85.888H153.831ZM158.403 80.452C159.123 80.452 159.699 80.206 160.131 79.714C160.563 79.21 160.779 78.454 160.779 77.446C160.779 76.438 160.563 75.688 160.131 75.196C159.699 74.704 159.123 74.458 158.403 74.458C157.695 74.458 157.125 74.704 156.693 75.196C156.261 75.688 156.045 76.438 156.045 77.446C156.045 78.454 156.261 79.21 156.693 79.714C157.125 80.206 157.695 80.452 158.403 80.452ZM165.168 82V72.91H167.202V79.786H166.662L171.828 72.91H173.682V82H171.648V75.106H172.206L167.022 82H165.168ZM176.314 85.888V75.178C176.314 74.806 176.302 74.428 176.278 74.044C176.254 73.66 176.218 73.282 176.17 72.91H178.348L178.546 74.818H178.348C178.528 74.182 178.906 73.678 179.482 73.306C180.07 72.922 180.748 72.73 181.516 72.73C182.32 72.73 183.022 72.922 183.622 73.306C184.222 73.678 184.69 74.218 185.026 74.926C185.362 75.622 185.53 76.462 185.53 77.446C185.53 78.43 185.362 79.276 185.026 79.984C184.69 80.692 184.222 81.238 183.622 81.622C183.022 81.994 182.32 82.18 181.516 82.18C180.76 82.18 180.094 81.994 179.518 81.622C178.942 81.25 178.558 80.752 178.366 80.128H178.564V85.888H176.314ZM180.886 80.452C181.606 80.452 182.182 80.206 182.614 79.714C183.046 79.21 183.262 78.454 183.262 77.446C183.262 76.438 183.046 75.688 182.614 75.196C182.182 74.704 181.606 74.458 180.886 74.458C180.178 74.458 179.608 74.704 179.176 75.196C178.744 75.688 178.528 76.438 178.528 77.446C178.528 78.454 178.744 79.21 179.176 79.714C179.608 80.206 180.178 80.452 180.886 80.452ZM191.826 82.18C190.89 82.18 190.08 81.988 189.396 81.604C188.712 81.22 188.178 80.674 187.794 79.966C187.422 79.258 187.236 78.418 187.236 77.446C187.236 76.474 187.422 75.64 187.794 74.944C188.178 74.236 188.712 73.69 189.396 73.306C190.08 72.922 190.89 72.73 191.826 72.73C192.762 72.73 193.572 72.922 194.256 73.306C194.952 73.69 195.486 74.236 195.858 74.944C196.242 75.64 196.434 76.474 196.434 77.446C196.434 78.418 196.242 79.258 195.858 79.966C195.486 80.674 194.952 81.22 194.256 81.604C193.572 81.988 192.762 82.18 191.826 82.18ZM191.826 80.452C192.534 80.452 193.098 80.206 193.518 79.714C193.938 79.21 194.148 78.454 194.148 77.446C194.148 76.438 193.938 75.688 193.518 75.196C193.098 74.704 192.534 74.458 191.826 74.458C191.118 74.458 190.554 74.704 190.134 75.196C189.714 75.688 189.504 76.438 189.504 77.446C189.504 78.454 189.714 79.21 190.134 79.714C190.554 80.206 191.118 80.452 191.826 80.452ZM198.566 82V72.91H203.408C204.548 72.91 205.382 73.12 205.91 73.54C206.438 73.948 206.702 74.53 206.702 75.286C206.702 75.862 206.51 76.342 206.126 76.726C205.742 77.11 205.232 77.35 204.596 77.446V77.194C205.376 77.242 205.976 77.47 206.396 77.878C206.816 78.286 207.026 78.814 207.026 79.462C207.026 80.242 206.726 80.86 206.126 81.316C205.526 81.772 204.674 82 203.57 82H198.566ZM200.654 80.614H203.336C203.864 80.614 204.266 80.506 204.542 80.29C204.83 80.074 204.974 79.756 204.974 79.336C204.974 78.916 204.83 78.598 204.542 78.382C204.266 78.166 203.864 78.058 203.336 78.058H200.654V80.614ZM200.654 76.672H203.138C203.618 76.672 203.99 76.57 204.254 76.366C204.518 76.15 204.65 75.85 204.65 75.466C204.65 75.082 204.518 74.788 204.254 74.584C203.99 74.38 203.618 74.278 203.138 74.278H200.654V76.672ZM212.572 82.18C211.78 82.18 211.084 81.994 210.484 81.622C209.884 81.238 209.416 80.692 209.08 79.984C208.744 79.276 208.576 78.43 208.576 77.446C208.576 76.462 208.744 75.622 209.08 74.926C209.416 74.218 209.884 73.678 210.484 73.306C211.084 72.922 211.78 72.73 212.572 72.73C213.34 72.73 214.012 72.922 214.588 73.306C215.176 73.678 215.566 74.182 215.758 74.818H215.56L215.758 72.91H217.918C217.882 73.282 217.846 73.66 217.81 74.044C217.786 74.428 217.774 74.806 217.774 75.178V82H215.542L215.524 80.128H215.74C215.548 80.752 215.158 81.25 214.57 81.622C213.982 81.994 213.316 82.18 212.572 82.18ZM213.202 80.452C213.91 80.452 214.48 80.206 214.912 79.714C215.344 79.21 215.56 78.454 215.56 77.446C215.56 76.438 215.344 75.688 214.912 75.196C214.48 74.704 213.91 74.458 213.202 74.458C212.494 74.458 211.924 74.704 211.492 75.196C211.06 75.688 210.844 76.438 210.844 77.446C210.844 78.454 211.054 79.21 211.474 79.714C211.906 80.206 212.482 80.452 213.202 80.452ZM222.36 82V74.674H219.246V72.91H227.724V74.674H224.592V82H222.36ZM229.117 82V72.91H231.349V75.952H233.743C234.955 75.952 235.867 76.21 236.479 76.726C237.091 77.23 237.397 77.962 237.397 78.922C237.397 79.546 237.253 80.092 236.965 80.56C236.677 81.016 236.257 81.37 235.705 81.622C235.165 81.874 234.511 82 233.743 82H229.117ZM231.349 80.524H233.437C234.049 80.524 234.517 80.398 234.841 80.146C235.165 79.882 235.327 79.486 235.327 78.958C235.327 78.43 235.165 78.046 234.841 77.806C234.529 77.554 234.061 77.428 233.437 77.428H231.349V80.524Z" fill="white"/>
</g>
<defs>
<filter id="filter0_f_233_169" x="1" y="0" width="350" height="151" filterUnits="userSpaceOnUse" color-interpolation-filters="sRGB">
<feFlood flood-opacity="0" result="BackgroundImageFix"/>
<feBlend mode="normal" in="SourceGraphic" in2="BackgroundImageFix" result="shape"/>
<feGaussianBlur stdDeviation="19.5" result="effect1_foregroundBlur_233_169"/>
</filter>
<filter id="filter1_d_233_169" x="0" y="19" width="352" height="153" filterUnits="userSpaceOnUse" color-interpolation-filters="sRGB">
<feFlood flood-opacity="0" result="BackgroundImageFix"/>
<feColorMatrix in="SourceAlpha" type="matrix" values="0 0 0 0 0 0 0 0 0 0 0 0 0 0 0 0 0 0 127 0" result="hardAlpha"/>
<feOffset dy="20"/>
<feGaussianBlur stdDeviation="20"/>
<feComposite in2="hardAlpha" operator="out"/>
<feColorMatrix type="matrix" values="0 0 0 0 0.0705882 0 0 0 0 0.0705882 0 0 0 0 0.0705882 0 0 0 0.4 0"/>
<feBlend mode="normal" in2="BackgroundImageFix" result="effect1_dropShadow_233_169"/>
<feBlend mode="normal" in="SourceGraphic" in2="effect1_dropShadow_233_169" result="shape"/>
</filter>
<linearGradient id="paint0_linear_233_169" x1="128.022" y1="46.424" x2="295.526" y2="75.199" gradientUnits="userSpaceOnUse">
<stop stop-color="#A92E41"/>
<stop offset="1" stop-color="#A92E41" stop-opacity="0.4"/>
</linearGradient>
<radialGradient id="paint1_radial_233_169" cx="0" cy="0" r="1" gradientUnits="userSpaceOnUse" gradientTransform="translate(40 75) scale(272 1020.95)">
<stop stop-color="white"/>
<stop offset="1" stop-color="white"/>
</radialGradient>
<linearGradient id="paint2_linear_233_169" x1="128.022" y1="46.424" x2="295.526" y2="75.199" gradientUnits="userSpaceOnUse">
<stop stop-color="#C4374C"/>
<stop offset="1" stop-color="#A92E41" stop-opacity="0.4"/>
</linearGradient>
<radialGradient id="paint3_radial_233_169" cx="0" cy="0" r="1" gradientUnits="userSpaceOnUse" gradientTransform="translate(40 75) scale(272 1020.95)">
<stop stop-color="white"/>
<stop offset="1" stop-color="white"/>
</radialGradient>
</defs>
</svg>
